<svg xmlns="http://www.w3.org/2000/svg" viewBox="0 0 100 100">
  <defs>
    <radialGradient id="ptrunk" cx="50%" cy="50%">
      <stop offset="0%" stop-color="#8d6e63"/>
      <stop offset="100%" stop-color="#5d4037"/>
    </radialGradient>
  </defs>
  <!-- Shadow -->
  <ellipse cx="54" cy="54" rx="38" ry="36" fill="#000" opacity="0.06"/>
  <!-- Fronds (leaf-shaped, radiating) -->
  <path d="M 50,50 Q 42,30 50,6 Q 58,30 50,50" fill="#43a047" fill-opacity="0.35" stroke="#2e7d32" stroke-width="0.8"/>
  <path d="M 50,50 Q 68,26 88,14 Q 72,34 50,50" fill="#66bb6a" fill-opacity="0.3" stroke="#388e3c" stroke-width="0.8"/>
  <path d="M 50,50 Q 76,42 94,50 Q 76,58 50,50" fill="#43a047" fill-opacity="0.35" stroke="#2e7d32" stroke-width="0.8"/>
  <path d="M 50,50 Q 68,74 88,86 Q 72,66 50,50" fill="#66bb6a" fill-opacity="0.3" stroke="#388e3c" stroke-width="0.8"/>
  <path d="M 50,50 Q 58,70 50,94 Q 42,70 50,50" fill="#43a047" fill-opacity="0.35" stroke="#2e7d32" stroke-width="0.8"/>
  <path d="M 50,50 Q 32,74 12,86 Q 28,66 50,50" fill="#66bb6a" fill-opacity="0.3" stroke="#388e3c" stroke-width="0.8"/>
  <path d="M 50,50 Q 24,58 6,50 Q 24,42 50,50" fill="#43a047" fill-opacity="0.35" stroke="#2e7d32" stroke-width="0.8"/>
  <path d="M 50,50 Q 32,26 12,14 Q 28,34 50,50" fill="#66bb6a" fill-opacity="0.3" stroke="#388e3c" stroke-width="0.8"/>
  <!-- Frond midribs -->
  <line x1="50" y1="50" x2="50" y2="8" stroke="#1b5e20" stroke-width="0.7" opacity="0.5"/>
  <line x1="50" y1="50" x2="87" y2="15" stroke="#1b5e20" stroke-width="0.7" opacity="0.5"/>
  <line x1="50" y1="50" x2="93" y2="50" stroke="#1b5e20" stroke-width="0.7" opacity="0.5"/>
  <line x1="50" y1="50" x2="87" y2="85" stroke="#1b5e20" stroke-width="0.7" opacity="0.5"/>
  <line x1="50" y1="50" x2="50" y2="92" stroke="#1b5e20" stroke-width="0.7" opacity="0.5"/>
  <line x1="50" y1="50" x2="13" y2="85" stroke="#1b5e20" stroke-width="0.7" opacity="0.5"/>
  <line x1="50" y1="50" x2="7" y2="50" stroke="#1b5e20" stroke-width="0.7" opacity="0.5"/>
  <line x1="50" y1="50" x2="13" y2="15" stroke="#1b5e20" stroke-width="0.7" opacity="0.5"/>
  <!-- Trunk -->
  <circle cx="50" cy="50" r="5.5" fill="url(#ptrunk)" stroke="#4e342e" stroke-width="1.2"/>
  <circle cx="50" cy="50" r="3" fill="none" stroke="#6d4c41" stroke-width="0.5" opacity="0.5"/>
</svg>
