<svg xmlns="http://www.w3.org/2000/svg" viewBox="0 0 100 100">
  <defs>
    <radialGradient id="ccanopy" cx="45%" cy="42%">
      <stop offset="0%" stop-color="#2e7d32" stop-opacity="0.5"/>
      <stop offset="70%" stop-color="#1b5e20" stop-opacity="0.4"/>
      <stop offset="100%" stop-color="#0d3311" stop-opacity="0.3"/>
    </radialGradient>
  </defs>
  <ellipse cx="53" cy="53" rx="36" ry="35" fill="#000" opacity="0.07"/>
  <!-- Outer canopy with pointed edges -->
  <polygon points="50,4 58,18 68,8 64,24 80,16 72,32 92,30 76,42 96,50 76,58 92,70 72,68 80,84 64,76 68,92 58,82 50,96 42,82 32,92 36,76 20,84 28,68 8,70 24,58 4,50 24,42 8,30 28,32 20,16 36,24 32,8 42,18"
    fill="url(#ccanopy)" stroke="#1b5e20" stroke-width="1.2" stroke-linejoin="round"/>
  <!-- Inner ring -->
  <circle cx="50" cy="50" r="22" fill="none" stroke="#2e7d32" stroke-width="0.7" opacity="0.4"/>
  <!-- Branch lines -->
  <line x1="50" y1="50" x2="50" y2="12" stroke="#1b5e20" stroke-width="0.6" opacity="0.3"/>
  <line x1="50" y1="50" x2="88" y2="50" stroke="#1b5e20" stroke-width="0.6" opacity="0.3"/>
  <line x1="50" y1="50" x2="50" y2="88" stroke="#1b5e20" stroke-width="0.6" opacity="0.3"/>
  <line x1="50" y1="50" x2="12" y2="50" stroke="#1b5e20" stroke-width="0.6" opacity="0.3"/>
  <!-- Trunk -->
  <circle cx="50" cy="50" r="4.5" fill="#5d4037" stroke="#3e2723" stroke-width="1"/>
  <circle cx="50" cy="50" r="2" fill="none" stroke="#4e342e" stroke-width="0.4" opacity="0.5"/>
</svg>
